<svg width="67" height="101" viewBox="0 0 67 101" fill="none" xmlns="http://www.w3.org/2000/svg">
<path d="M57.1525 10.1264C44.0571 -2.07599 22.9419 -2.07599 9.84649 10.1264C-3.24896 22.3288 -3.24896 42.0708 9.84649 54.2732C9.84649 54.2732 33.4995 75.9002 33.4995 100.9C33.4995 75.9002 57.1525 54.2732 57.1525 54.2732C70.248 42.17 70.248 22.3288 57.1525 10.1264Z" fill="white"/>
<path d="M47.712 46.1386C47.1029 42.8648 47.8135 39.2934 47.712 35.9204C47.6105 32.1505 47.0014 28.4799 47.0014 24.8093C47.0014 21.8331 47.509 18.6585 46.4938 15.7815C46.5953 15.4839 46.5953 15.087 46.6969 14.7894C47.0014 13.3013 42.0272 14.095 41.3166 15.3847C40.809 15.7815 40.606 16.2775 40.809 16.6743C40.9105 16.7736 40.9105 16.8728 40.9105 17.0712C39.9969 21.5355 38.6772 25.8013 37.1544 30.1664C36.5453 31.8529 35.9363 33.4402 35.3272 35.0275C34.515 33.5394 33.7029 31.9521 32.9923 30.3648C31.0635 25.6029 29.2363 20.7418 26.9014 16.1783C27.206 14.095 22.3332 14.2934 21.4196 16.1783C20.3029 18.5593 20.4044 20.9402 20.8105 23.4204C21.2166 26.2974 21.3181 29.0751 21.3181 31.9521C21.4196 37.5077 21.8257 42.964 21.9272 48.5196C21.4196 49.1148 21.3181 49.7101 21.8257 50.4045C22.0287 50.7021 22.3332 50.9005 22.6378 51.1982C23.9575 52.1902 27.612 51.3966 27.612 49.4124C27.612 43.6585 27.206 38.0037 27.0029 32.2497C27.0029 31.6545 27.0029 31.1585 27.0029 30.5632C27.1044 30.7616 27.206 30.9601 27.206 31.1585C28.1196 33.341 29.0332 35.5236 30.3529 37.6069C31.5711 39.6902 32.1802 41.8728 32.8908 44.0553C32.5863 44.3529 32.4847 44.6505 32.5863 45.0474C32.4847 45.345 32.6878 45.4442 32.9923 45.5434C33.906 46.337 35.6317 45.9402 36.5453 45.5434C36.9514 45.345 37.3575 45.1466 37.7635 44.9482C38.2711 44.6505 38.9817 43.9561 38.7787 43.3609C38.7787 43.2617 38.6772 43.0632 38.6772 42.964C39.3878 41.1783 39.6923 39.3926 40.0984 37.5077C40.5044 35.5236 41.215 33.6386 41.9256 31.7537C42.0272 32.6466 42.0272 33.4402 42.1287 34.3331C42.4332 37.9045 42.1287 41.3767 42.1287 44.9482C42.1287 46.1386 42.2302 47.2299 42.4332 48.3212C42.5347 48.8172 42.9408 50.8013 42.8393 50.9005C41.9256 51.6942 42.2302 52.6863 43.3469 52.8847C44.6666 53.1823 46.2908 52.7855 47.3059 51.8926C48.9302 50.5037 48.1181 48.1228 47.712 46.1386Z" fill="#6BC6B3"/>
</svg>
